<svg xmlns="http://www.w3.org/2000/svg" xmlns:xlink="http://www.w3.org/1999/xlink" width="500" zoomAndPan="magnify" viewBox="0 0 375 374.999991" height="500" preserveAspectRatio="xMidYMid meet" version="1.0"><defs><g/><clipPath id="a8edee640b"><path d="M 70.371094 185 L 128 185 L 128 216.671875 L 70.371094 216.671875 Z M 70.371094 185 " clip-rule="nonzero"/></clipPath><clipPath id="afaa8d1b54"><path d="M 81 158.171875 L 118 158.171875 L 118 192 L 81 192 Z M 81 158.171875 " clip-rule="nonzero"/></clipPath></defs><g clip-path="url(#a8edee640b)"><path fill="#d3d6d2" d="M 122 185.039062 C 116.71875 185.039062 112.417969 189.304688 112.417969 194.550781 L 112.417969 196.289062 C 110.296875 195.535156 106.195312 194.550781 99.246094 194.550781 C 92.292969 194.550781 88.191406 195.535156 86.070312 196.289062 L 86.070312 194.550781 C 86.070312 189.304688 81.769531 185.039062 76.488281 185.039062 C 73.1875 185.039062 70.5 187.707031 70.5 190.984375 C 70.5 193.390625 71.945312 195.546875 74.1875 196.472656 C 74.859375 196.753906 75.289062 197.398438 75.289062 198.117188 L 76.488281 202.875 C 76.488281 207.144531 79.746094 210.667969 83.921875 211.140625 C 82.9375 211.605469 82.253906 212.59375 82.253906 213.75 C 82.253906 215.347656 83.5625 216.648438 85.171875 216.648438 C 86.785156 216.648438 88.09375 215.347656 88.09375 213.75 C 88.09375 212.636719 87.457031 211.683594 86.53125 211.199219 L 111.960938 211.199219 C 111.039062 211.683594 110.398438 212.636719 110.398438 213.75 C 110.398438 215.347656 111.707031 216.648438 113.320312 216.648438 C 114.933594 216.648438 116.238281 215.347656 116.238281 213.75 C 116.238281 212.59375 115.554688 211.605469 114.570312 211.140625 C 118.746094 210.667969 122 207.144531 122 202.875 L 123.199219 198.117188 C 123.199219 197.398438 123.632812 196.753906 124.300781 196.472656 C 126.542969 195.546875 127.988281 193.390625 127.988281 190.984375 C 127.988281 187.707031 125.304688 185.039062 122 185.039062 Z M 122 185.039062 " fill-opacity="1" fill-rule="nonzero"/></g><g clip-path="url(#afaa8d1b54)"><path fill="#d3d6d2" d="M 89.363281 191.769531 C 91.855469 191.320312 95.101562 190.984375 99.246094 190.984375 C 103.390625 190.984375 106.632812 191.320312 109.125 191.769531 C 110.066406 187.464844 113.15625 183.953125 117.210938 182.375 L 117.210938 176.03125 C 117.210938 166.179688 109.167969 158.195312 99.246094 158.195312 C 89.324219 158.195312 81.277344 166.179688 81.277344 176.03125 L 81.277344 182.378906 C 85.335938 183.957031 88.421875 187.46875 89.363281 191.769531 Z M 89.363281 191.769531 " fill-opacity="1" fill-rule="nonzero"/></g><g fill="#d3d6d2" fill-opacity="1"><g transform="translate(145.056309, 209.229596)"><g><path d="M 1.050781 0 L 2.128906 0 L 2.128906 -4.773438 L 4.8125 -4.773438 L 4.8125 -5.652344 L 2.128906 -5.652344 L 2.128906 -8.734375 C 2.195312 -8.804688 2.226562 -8.84375 2.296875 -8.914062 L 6.421875 -8.914062 L 6.421875 -9.796875 L 1.050781 -9.796875 Z M 1.050781 0 "/></g></g></g><g fill="#d3d6d2" fill-opacity="1"><g transform="translate(152.024422, 209.229596)"><g><path d="M 1.050781 -6.171875 L 1.050781 -2.308594 C 1.050781 -0.699219 2.28125 0.183594 3.554688 0.183594 C 4.578125 0.183594 5.640625 -0.390625 6.128906 -1.609375 L 6.128906 0 L 7.195312 0 L 7.195312 -6.171875 L 6.128906 -6.171875 L 6.128906 -4.589844 C 6.128906 -1.847656 4.8125 -0.726562 3.695312 -0.726562 C 2.855469 -0.726562 2.128906 -1.359375 2.128906 -2.378906 L 2.128906 -6.171875 Z M 1.050781 -6.171875 "/></g></g></g><g fill="#d3d6d2" fill-opacity="1"><g transform="translate(160.265827, 209.229596)"><g><path d="M 1.050781 0 L 2.113281 0 L 2.113281 -3.234375 C 2.113281 -4.28125 2.910156 -5.289062 4.074219 -5.289062 L 4.074219 -6.171875 C 3.078125 -6.171875 2.253906 -5.613281 1.929688 -5.050781 L 1.929688 -6.171875 L 1.050781 -6.171875 Z M 1.050781 0 "/></g></g></g><g fill="#d3d6d2" fill-opacity="1"><g transform="translate(164.687354, 209.229596)"><g><path d="M 1.050781 0 L 2.128906 0 L 2.128906 -1.582031 C 2.128906 -4.324219 3.429688 -5.445312 4.546875 -5.445312 C 5.375 -5.445312 6.101562 -4.8125 6.101562 -3.792969 L 6.101562 0 L 7.179688 0 L 7.179688 -3.863281 C 7.179688 -5.472656 5.960938 -6.355469 4.6875 -6.355469 C 3.667969 -6.355469 2.601562 -5.78125 2.128906 -4.5625 L 2.128906 -6.171875 L 1.050781 -6.171875 Z M 1.050781 0 "/></g></g></g><g fill="#d3d6d2" fill-opacity="1"><g transform="translate(172.914763, 209.229596)"><g><path d="M 1.722656 -8.886719 L 1.398438 -8.886719 L 0.6875 -8.160156 L 0.6875 -7.835938 L 1.398438 -7.125 L 1.722656 -7.125 L 2.449219 -7.835938 L 2.449219 -8.160156 Z M 2.128906 0 L 2.128906 -6.171875 L 1.050781 -6.171875 L 1.050781 0 Z M 2.128906 0 "/></g></g></g><g fill="#d3d6d2" fill-opacity="1"><g transform="translate(176.035018, 209.229596)"><g><path d="M 0.210938 -6.171875 L 0.210938 -5.289062 L 1.089844 -5.289062 L 1.089844 -3.273438 C 1.089844 -1.46875 2.574219 0 4.476562 0 L 4.476562 -0.882812 C 3.191406 -0.882812 2.167969 -1.960938 2.167969 -3.273438 L 2.167969 -5.289062 L 3.90625 -5.289062 L 3.90625 -6.171875 L 2.167969 -6.171875 L 2.167969 -8.160156 L 1.273438 -8.160156 L 1.273438 -6.171875 Z M 0.210938 -6.171875 "/></g></g></g><g fill="#d3d6d2" fill-opacity="1"><g transform="translate(180.862318, 209.229596)"><g><path d="M 1.050781 -6.171875 L 1.050781 -2.308594 C 1.050781 -0.699219 2.28125 0.183594 3.554688 0.183594 C 4.578125 0.183594 5.640625 -0.390625 6.128906 -1.609375 L 6.128906 0 L 7.195312 0 L 7.195312 -6.171875 L 6.128906 -6.171875 L 6.128906 -4.589844 C 6.128906 -1.847656 4.8125 -0.726562 3.695312 -0.726562 C 2.855469 -0.726562 2.128906 -1.359375 2.128906 -2.378906 L 2.128906 -6.171875 Z M 1.050781 -6.171875 "/></g></g></g><g fill="#d3d6d2" fill-opacity="1"><g transform="translate(189.103723, 209.229596)"><g><path d="M 1.050781 0 L 2.113281 0 L 2.113281 -3.234375 C 2.113281 -4.28125 2.910156 -5.289062 4.074219 -5.289062 L 4.074219 -6.171875 C 3.078125 -6.171875 2.253906 -5.613281 1.929688 -5.050781 L 1.929688 -6.171875 L 1.050781 -6.171875 Z M 1.050781 0 "/></g></g></g><g fill="#d3d6d2" fill-opacity="1"><g transform="translate(193.525251, 209.229596)"><g><path d="M 4.113281 0.183594 C 5.515625 0.183594 6.789062 -0.644531 7.292969 -1.890625 L 6.285156 -2.253906 C 5.949219 -1.328125 5.066406 -0.699219 4.113281 -0.699219 C 2.855469 -0.699219 1.863281 -1.707031 1.804688 -2.980469 L 7.460938 -2.980469 C 7.460938 -5.066406 5.808594 -6.355469 4.074219 -6.355469 C 2.351562 -6.355469 0.699219 -5.082031 0.699219 -3.09375 C 0.699219 -1.289062 2.210938 0.183594 4.113281 0.183594 Z M 4.085938 -5.457031 C 5.121094 -5.457031 6.046875 -4.757812 6.285156 -3.679688 L 1.890625 -3.679688 C 2.128906 -4.757812 3.066406 -5.457031 4.085938 -5.457031 Z M 4.085938 -5.457031 "/></g></g></g><g fill="#d3d6d2" fill-opacity="1"><g transform="translate(201.682702, 209.229596)"><g/></g></g><g fill="#d3d6d2" fill-opacity="1"><g transform="translate(206.579972, 209.229596)"><g><path d="M 4.8125 0.183594 C 6.074219 0.183594 6.996094 -0.210938 7.597656 -0.785156 L 8.382812 0 L 9.878906 0 L 8.367188 -1.511719 C 9.054688 -2.671875 8.914062 -4.199219 8.101562 -5.191406 L 8.214844 -5.429688 L 8.929688 -5.429688 L 8.929688 -6.171875 L 5.835938 -6.171875 L 5.835938 -5.429688 L 6.410156 -5.429688 C 7.558594 -4.996094 7.933594 -3.441406 7.53125 -2.351562 C 6.1875 -3.707031 5.023438 -4.882812 4.28125 -5.890625 C 6.339844 -6.253906 6.871094 -7.234375 6.871094 -8.160156 C 6.871094 -9.363281 5.75 -9.964844 4.605469 -9.964844 C 3.414062 -9.964844 2.195312 -9.308594 2.195312 -8.003906 C 2.195312 -7.472656 2.378906 -6.898438 2.714844 -6.296875 C -0.824219 -5.234375 -0.585938 0.183594 4.8125 0.183594 Z M 3.164062 -5.585938 C 4.015625 -4.351562 5.402344 -2.980469 6.84375 -1.539062 C 6.410156 -1.023438 5.722656 -0.699219 4.773438 -0.699219 C 0.785156 -0.699219 0.628906 -4.8125 3.164062 -5.585938 Z M 3.316406 -8.003906 C 3.316406 -8.832031 3.972656 -9.238281 4.632812 -9.238281 C 5.261719 -9.238281 5.890625 -8.84375 5.890625 -8.101562 C 5.890625 -7.195312 5.136719 -6.730469 3.820312 -6.5625 C 3.5 -7.109375 3.316406 -7.585938 3.316406 -8.003906 Z M 3.316406 -8.003906 "/></g></g></g><g fill="#d3d6d2" fill-opacity="1"><g transform="translate(216.82225, 209.229596)"><g/></g></g><g fill="#d3d6d2" fill-opacity="1"><g transform="translate(221.71952, 209.229596)"><g><path d="M 1.050781 0 L 2.128906 0 L 2.128906 -9.796875 L 1.050781 -9.796875 Z M 1.050781 0 "/></g></g></g><g fill="#d3d6d2" fill-opacity="1"><g transform="translate(224.895747, 209.229596)"><g><path d="M 1.050781 0 L 2.128906 0 L 2.128906 -1.582031 C 2.128906 -4.324219 3.429688 -5.445312 4.546875 -5.445312 C 5.375 -5.445312 6.101562 -4.8125 6.101562 -3.792969 L 6.101562 0 L 7.179688 0 L 7.179688 -3.863281 C 7.179688 -5.472656 5.960938 -6.355469 4.6875 -6.355469 C 3.667969 -6.355469 2.601562 -5.78125 2.128906 -4.5625 L 2.128906 -6.171875 L 1.050781 -6.171875 Z M 1.050781 0 "/></g></g></g><g fill="#d3d6d2" fill-opacity="1"><g transform="translate(233.123156, 209.229596)"><g><path d="M 0.210938 -6.171875 L 0.210938 -5.289062 L 1.089844 -5.289062 L 1.089844 -3.273438 C 1.089844 -1.46875 2.574219 0 4.476562 0 L 4.476562 -0.882812 C 3.191406 -0.882812 2.167969 -1.960938 2.167969 -3.273438 L 2.167969 -5.289062 L 3.90625 -5.289062 L 3.90625 -6.171875 L 2.167969 -6.171875 L 2.167969 -8.160156 L 1.273438 -8.160156 L 1.273438 -6.171875 Z M 0.210938 -6.171875 "/></g></g></g><g fill="#d3d6d2" fill-opacity="1"><g transform="translate(237.950457, 209.229596)"><g><path d="M 4.113281 0.183594 C 5.515625 0.183594 6.789062 -0.644531 7.292969 -1.890625 L 6.285156 -2.253906 C 5.949219 -1.328125 5.066406 -0.699219 4.113281 -0.699219 C 2.855469 -0.699219 1.863281 -1.707031 1.804688 -2.980469 L 7.460938 -2.980469 C 7.460938 -5.066406 5.808594 -6.355469 4.074219 -6.355469 C 2.351562 -6.355469 0.699219 -5.082031 0.699219 -3.09375 C 0.699219 -1.289062 2.210938 0.183594 4.113281 0.183594 Z M 4.085938 -5.457031 C 5.121094 -5.457031 6.046875 -4.757812 6.285156 -3.679688 L 1.890625 -3.679688 C 2.128906 -4.757812 3.066406 -5.457031 4.085938 -5.457031 Z M 4.085938 -5.457031 "/></g></g></g><g fill="#d3d6d2" fill-opacity="1"><g transform="translate(246.107908, 209.229596)"><g><path d="M 1.050781 0 L 2.113281 0 L 2.113281 -3.234375 C 2.113281 -4.28125 2.910156 -5.289062 4.074219 -5.289062 L 4.074219 -6.171875 C 3.078125 -6.171875 2.253906 -5.613281 1.929688 -5.050781 L 1.929688 -6.171875 L 1.050781 -6.171875 Z M 1.050781 0 "/></g></g></g><g fill="#d3d6d2" fill-opacity="1"><g transform="translate(250.529436, 209.229596)"><g><path d="M 1.722656 -8.886719 L 1.398438 -8.886719 L 0.6875 -8.160156 L 0.6875 -7.835938 L 1.398438 -7.125 L 1.722656 -7.125 L 2.449219 -7.835938 L 2.449219 -8.160156 Z M 2.128906 0 L 2.128906 -6.171875 L 1.050781 -6.171875 L 1.050781 0 Z M 2.128906 0 "/></g></g></g><g fill="#d3d6d2" fill-opacity="1"><g transform="translate(253.64969, 209.229596)"><g><path d="M 0.699219 -3.09375 C 0.699219 -1.289062 2.210938 0.183594 4.113281 0.183594 C 5.90625 0.183594 7.515625 -1.203125 7.515625 -3.09375 C 7.515625 -4.855469 6.03125 -6.355469 4.101562 -6.355469 C 2.296875 -6.355469 0.699219 -4.96875 0.699219 -3.09375 Z M 4.101562 -5.472656 C 5.417969 -5.472656 6.421875 -4.378906 6.421875 -3.09375 C 6.421875 -1.722656 5.332031 -0.699219 4.113281 -0.699219 C 2.828125 -0.699219 1.792969 -1.777344 1.792969 -3.09375 C 1.792969 -4.449219 2.867188 -5.472656 4.101562 -5.472656 Z M 4.101562 -5.472656 "/></g></g></g><g fill="#d3d6d2" fill-opacity="1"><g transform="translate(261.863103, 209.229596)"><g><path d="M 1.050781 0 L 2.113281 0 L 2.113281 -3.234375 C 2.113281 -4.28125 2.910156 -5.289062 4.074219 -5.289062 L 4.074219 -6.171875 C 3.078125 -6.171875 2.253906 -5.613281 1.929688 -5.050781 L 1.929688 -6.171875 L 1.050781 -6.171875 Z M 1.050781 0 "/></g></g></g><g fill="#d3d6d2" fill-opacity="1"><g transform="translate(142.05631, 185.820384)"><g><path d="M 21.140625 -2.390625 C 18.765625 -0.585938 15.914062 0.3125 12.59375 0.3125 C 9.28125 0.3125 6.609375 -0.75 4.578125 -2.875 C 2.554688 -5.007812 1.546875 -7.664062 1.546875 -10.84375 C 1.546875 -14.03125 2.519531 -16.679688 4.46875 -18.796875 C 6.425781 -20.921875 9.0625 -21.984375 12.375 -21.984375 C 13.894531 -21.984375 15.421875 -21.773438 16.953125 -21.359375 C 18.484375 -20.941406 19.640625 -20.519531 20.421875 -20.09375 L 20.421875 -16.125 L 20.09375 -16.1875 C 19.570312 -18.039062 18.675781 -19.347656 17.40625 -20.109375 C 16.132812 -20.878906 14.457031 -21.265625 12.375 -21.265625 C 9.726562 -21.265625 7.710938 -20.304688 6.328125 -18.390625 C 4.941406 -16.484375 4.25 -13.988281 4.25 -10.90625 C 4.25 -7.832031 4.984375 -5.34375 6.453125 -3.4375 C 7.921875 -1.539062 9.972656 -0.59375 12.609375 -0.59375 C 14.515625 -0.59375 16.101562 -0.820312 17.375 -1.28125 C 18.644531 -1.75 19.898438 -2.425781 21.140625 -3.3125 Z M 21.140625 -2.390625 "/></g></g></g><g fill="#d3d6d2" fill-opacity="1"><g transform="translate(164.125564, 185.820384)"><g><path d="M 13.734375 -0.375 C 14.515625 -0.375 15.066406 -0.4375 15.390625 -0.5625 C 15.710938 -0.6875 15.875 -1.003906 15.875 -1.515625 C 15.875 -2.035156 15.328125 -3.789062 14.234375 -6.78125 L 4.78125 -6.78125 C 3.882812 -4.164062 3.4375 -2.519531 3.4375 -1.84375 C 3.4375 -1.175781 3.609375 -0.765625 3.953125 -0.609375 C 4.296875 -0.453125 4.910156 -0.375 5.796875 -0.375 L 5.859375 0 L -1.109375 0 L -1.046875 -0.375 C -0.453125 -0.375 0.015625 -0.425781 0.359375 -0.53125 C 0.703125 -0.632812 1.070312 -0.90625 1.46875 -1.34375 C 1.875 -1.789062 2.257812 -2.4375 2.625 -3.28125 C 3 -4.132812 3.445312 -5.320312 3.96875 -6.84375 L 6.734375 -14.8125 C 7.703125 -17.625 8.1875 -19.328125 8.1875 -19.921875 C 8.1875 -20.523438 8.039062 -20.914062 7.75 -21.09375 C 7.457031 -21.269531 6.898438 -21.359375 6.078125 -21.359375 L 6.015625 -21.703125 L 11.125 -21.703125 L 16.609375 -6.84375 C 17.546875 -4.382812 18.171875 -2.820312 18.484375 -2.15625 C 18.804688 -1.5 19.113281 -1.082031 19.40625 -0.90625 C 19.925781 -0.550781 20.578125 -0.375 21.359375 -0.375 L 21.421875 0 L 13.671875 0 Z M 9.390625 -20.03125 L 5.015625 -7.53125 L 13.984375 -7.53125 Z M 9.390625 -20.03125 "/></g></g></g><g fill="#d3d6d2" fill-opacity="1"><g transform="translate(184.428034, 185.820384)"><g><path d="M 2.546875 -6.578125 C 2.546875 -4.566406 3.035156 -3.035156 4.015625 -1.984375 C 4.992188 -0.929688 6.195312 -0.40625 7.625 -0.40625 C 9.050781 -0.40625 10.21875 -0.75 11.125 -1.4375 C 12.039062 -2.132812 12.5 -3.226562 12.5 -4.71875 C 12.5 -6.0625 11.785156 -7.257812 10.359375 -8.3125 C 9.734375 -8.757812 9.035156 -9.207031 8.265625 -9.65625 C 7.503906 -10.101562 6.742188 -10.5625 5.984375 -11.03125 C 5.222656 -11.507812 4.53125 -12.007812 3.90625 -12.53125 C 2.476562 -13.726562 1.765625 -15.125 1.765625 -16.71875 C 1.765625 -18.320312 2.347656 -19.597656 3.515625 -20.546875 C 4.679688 -21.503906 6.226562 -21.984375 8.15625 -21.984375 C 10.09375 -21.984375 11.890625 -21.554688 13.546875 -20.703125 C 13.546875 -19.671875 13.390625 -17.894531 13.078125 -15.375 L 12.609375 -15.5 C 12.609375 -17.4375 12.132812 -18.882812 11.1875 -19.84375 C 10.238281 -20.8125 9.148438 -21.296875 7.921875 -21.296875 C 6.691406 -21.296875 5.703125 -20.9375 4.953125 -20.21875 C 4.210938 -19.507812 3.84375 -18.671875 3.84375 -17.703125 C 3.84375 -16.734375 4.101562 -15.898438 4.625 -15.203125 C 5.15625 -14.515625 5.816406 -13.941406 6.609375 -13.484375 C 7.410156 -13.023438 8.273438 -12.519531 9.203125 -11.96875 C 10.140625 -11.425781 11.003906 -10.890625 11.796875 -10.359375 C 12.585938 -9.835938 13.242188 -9.148438 13.765625 -8.296875 C 14.296875 -7.453125 14.5625 -6.503906 14.5625 -5.453125 C 14.5625 -3.554688 13.882812 -2.117188 12.53125 -1.140625 C 11.1875 -0.171875 9.5625 0.3125 7.65625 0.3125 C 6.601562 0.3125 5.523438 0.144531 4.421875 -0.1875 C 3.316406 -0.519531 2.410156 -1.003906 1.703125 -1.640625 C 1.703125 -2.960938 1.828125 -4.640625 2.078125 -6.671875 Z M 2.546875 -6.578125 "/></g></g></g><g fill="#d3d6d2" fill-opacity="1"><g transform="translate(200.701005, 185.820384)"><g><path d="M 13.734375 -0.375 C 14.515625 -0.375 15.066406 -0.4375 15.390625 -0.5625 C 15.710938 -0.6875 15.875 -1.003906 15.875 -1.515625 C 15.875 -2.035156 15.328125 -3.789062 14.234375 -6.78125 L 4.78125 -6.78125 C 3.882812 -4.164062 3.4375 -2.519531 3.4375 -1.84375 C 3.4375 -1.175781 3.609375 -0.765625 3.953125 -0.609375 C 4.296875 -0.453125 4.910156 -0.375 5.796875 -0.375 L 5.859375 0 L -1.109375 0 L -1.046875 -0.375 C -0.453125 -0.375 0.015625 -0.425781 0.359375 -0.53125 C 0.703125 -0.632812 1.070312 -0.90625 1.46875 -1.34375 C 1.875 -1.789062 2.257812 -2.4375 2.625 -3.28125 C 3 -4.132812 3.445312 -5.320312 3.96875 -6.84375 L 6.734375 -14.8125 C 7.703125 -17.625 8.1875 -19.328125 8.1875 -19.921875 C 8.1875 -20.523438 8.039062 -20.914062 7.75 -21.09375 C 7.457031 -21.269531 6.898438 -21.359375 6.078125 -21.359375 L 6.015625 -21.703125 L 11.125 -21.703125 L 16.609375 -6.84375 C 17.546875 -4.382812 18.171875 -2.820312 18.484375 -2.15625 C 18.804688 -1.5 19.113281 -1.082031 19.40625 -0.90625 C 19.925781 -0.550781 20.578125 -0.375 21.359375 -0.375 L 21.421875 0 L 13.671875 0 Z M 9.390625 -20.03125 L 5.015625 -7.53125 L 13.984375 -7.53125 Z M 9.390625 -20.03125 "/></g></g></g><g fill="#d3d6d2" fill-opacity="1"><g transform="translate(221.003475, 185.820384)"><g/></g></g><g fill="#d3d6d2" fill-opacity="1"><g transform="translate(228.752509, 185.820384)"><g><path d="M 21.140625 -2.390625 C 18.765625 -0.585938 15.914062 0.3125 12.59375 0.3125 C 9.28125 0.3125 6.609375 -0.75 4.578125 -2.875 C 2.554688 -5.007812 1.546875 -7.664062 1.546875 -10.84375 C 1.546875 -14.03125 2.519531 -16.679688 4.46875 -18.796875 C 6.425781 -20.921875 9.0625 -21.984375 12.375 -21.984375 C 13.894531 -21.984375 15.421875 -21.773438 16.953125 -21.359375 C 18.484375 -20.941406 19.640625 -20.519531 20.421875 -20.09375 L 20.421875 -16.125 L 20.09375 -16.1875 C 19.570312 -18.039062 18.675781 -19.347656 17.40625 -20.109375 C 16.132812 -20.878906 14.457031 -21.265625 12.375 -21.265625 C 9.726562 -21.265625 7.710938 -20.304688 6.328125 -18.390625 C 4.941406 -16.484375 4.25 -13.988281 4.25 -10.90625 C 4.25 -7.832031 4.984375 -5.34375 6.453125 -3.4375 C 7.921875 -1.539062 9.972656 -0.59375 12.609375 -0.59375 C 14.515625 -0.59375 16.101562 -0.820312 17.375 -1.28125 C 18.644531 -1.75 19.898438 -2.425781 21.140625 -3.3125 Z M 21.140625 -2.390625 "/></g></g></g><g fill="#d3d6d2" fill-opacity="1"><g transform="translate(250.821763, 185.820384)"><g><path d="M 21.546875 -14.6875 L 21.546875 -7 C 21.546875 -3.90625 21.703125 -2.046875 22.015625 -1.421875 C 22.117188 -1.171875 22.289062 -0.953125 22.53125 -0.765625 C 22.78125 -0.585938 23.054688 -0.476562 23.359375 -0.4375 C 23.660156 -0.394531 24.054688 -0.375 24.546875 -0.375 L 24.609375 0 L 16.25 0 L 16.3125 -0.375 C 16.820312 -0.375 17.226562 -0.394531 17.53125 -0.4375 C 17.832031 -0.476562 18.109375 -0.585938 18.359375 -0.765625 C 18.617188 -0.953125 18.804688 -1.164062 18.921875 -1.40625 C 19.035156 -1.644531 19.132812 -2.046875 19.21875 -2.609375 C 19.320312 -3.328125 19.375 -4.789062 19.375 -7 L 19.375 -10.421875 L 6.8125 -10.421875 L 6.8125 -7 C 6.8125 -4.789062 6.878906 -3.28125 7.015625 -2.46875 C 7.148438 -1.664062 7.34375 -1.164062 7.59375 -0.96875 C 8.070312 -0.570312 8.828125 -0.375 9.859375 -0.375 L 9.921875 0 L 1.546875 0 L 1.609375 -0.375 C 2.128906 -0.375 2.53125 -0.394531 2.8125 -0.4375 C 3.101562 -0.476562 3.378906 -0.585938 3.640625 -0.765625 C 3.898438 -0.953125 4.085938 -1.164062 4.203125 -1.40625 C 4.316406 -1.644531 4.414062 -2.046875 4.5 -2.609375 C 4.601562 -3.328125 4.65625 -4.789062 4.65625 -7 L 4.65625 -14.6875 C 4.65625 -16.84375 4.59375 -18.34375 4.46875 -19.1875 C 4.34375 -20.03125 4.15625 -20.554688 3.90625 -20.765625 C 3.40625 -21.160156 2.640625 -21.359375 1.609375 -21.359375 L 1.546875 -21.703125 L 9.921875 -21.703125 L 9.859375 -21.359375 C 8.828125 -21.359375 8.070312 -21.160156 7.59375 -20.765625 C 7.070312 -20.335938 6.8125 -18.3125 6.8125 -14.6875 L 6.8125 -11.21875 L 19.375 -11.21875 L 19.375 -14.6875 C 19.375 -17.769531 19.21875 -19.644531 18.90625 -20.3125 C 18.800781 -20.550781 18.617188 -20.765625 18.359375 -20.953125 C 18.109375 -21.140625 17.832031 -21.253906 17.53125 -21.296875 C 17.226562 -21.335938 16.820312 -21.359375 16.3125 -21.359375 L 16.25 -21.703125 L 24.609375 -21.703125 L 24.546875 -21.359375 C 24.054688 -21.359375 23.660156 -21.335938 23.359375 -21.296875 C 23.054688 -21.253906 22.78125 -21.140625 22.53125 -20.953125 C 22.289062 -20.765625 22.113281 -20.546875 22 -20.296875 C 21.882812 -20.054688 21.785156 -19.65625 21.703125 -19.09375 C 21.597656 -18.1875 21.546875 -16.71875 21.546875 -14.6875 Z M 21.546875 -14.6875 "/></g></g></g><g fill="#d3d6d2" fill-opacity="1"><g transform="translate(276.982509, 185.820384)"><g><path d="M 6.8125 -14.6875 L 6.8125 -7 C 6.8125 -4.789062 6.878906 -3.28125 7.015625 -2.46875 C 7.148438 -1.664062 7.34375 -1.164062 7.59375 -0.96875 C 8.070312 -0.570312 8.828125 -0.375 9.859375 -0.375 L 9.921875 0 L 1.546875 0 L 1.609375 -0.375 C 2.128906 -0.375 2.53125 -0.394531 2.8125 -0.4375 C 3.101562 -0.476562 3.378906 -0.585938 3.640625 -0.765625 C 3.898438 -0.953125 4.085938 -1.164062 4.203125 -1.40625 C 4.316406 -1.644531 4.414062 -2.046875 4.5 -2.609375 C 4.601562 -3.328125 4.65625 -4.789062 4.65625 -7 L 4.65625 -14.6875 C 4.65625 -16.84375 4.59375 -18.34375 4.46875 -19.1875 C 4.34375 -20.03125 4.15625 -20.554688 3.90625 -20.765625 C 3.40625 -21.160156 2.640625 -21.359375 1.609375 -21.359375 L 1.546875 -21.703125 L 9.921875 -21.703125 L 9.859375 -21.359375 C 8.828125 -21.359375 8.070312 -21.160156 7.59375 -20.765625 C 7.070312 -20.335938 6.8125 -18.3125 6.8125 -14.6875 Z M 6.8125 -14.6875 "/></g></g></g><g fill="#d3d6d2" fill-opacity="1"><g transform="translate(288.451079, 185.820384)"><g><path d="M 21.140625 -2.390625 C 18.765625 -0.585938 15.914062 0.3125 12.59375 0.3125 C 9.28125 0.3125 6.609375 -0.75 4.578125 -2.875 C 2.554688 -5.007812 1.546875 -7.664062 1.546875 -10.84375 C 1.546875 -14.03125 2.519531 -16.679688 4.46875 -18.796875 C 6.425781 -20.921875 9.0625 -21.984375 12.375 -21.984375 C 13.894531 -21.984375 15.421875 -21.773438 16.953125 -21.359375 C 18.484375 -20.941406 19.640625 -20.519531 20.421875 -20.09375 L 20.421875 -16.125 L 20.09375 -16.1875 C 19.570312 -18.039062 18.675781 -19.347656 17.40625 -20.109375 C 16.132812 -20.878906 14.457031 -21.265625 12.375 -21.265625 C 9.726562 -21.265625 7.710938 -20.304688 6.328125 -18.390625 C 4.941406 -16.484375 4.25 -13.988281 4.25 -10.90625 C 4.25 -7.832031 4.984375 -5.34375 6.453125 -3.4375 C 7.921875 -1.539062 9.972656 -0.59375 12.609375 -0.59375 C 14.515625 -0.59375 16.101562 -0.820312 17.375 -1.28125 C 18.644531 -1.75 19.898438 -2.425781 21.140625 -3.3125 Z M 21.140625 -2.390625 "/></g></g></g></svg>